<svg width="142" height="24" viewBox="0 0 142 24" fill="none" xmlns="http://www.w3.org/2000/svg">
<path d="M8.97137 23.4543C7.59294 23.4543 6.35028 23.2406 5.24335 22.8131C4.15732 22.3652 3.22793 21.7647 2.45516 21.0115C1.7033 20.2582 1.12895 19.393 0.732134 18.4159C0.335313 17.4184 0.136902 16.3801 0.136902 15.3012C0.136902 14.1408 0.335313 13.0517 0.732134 12.0339C1.12895 10.9956 1.7033 10.0897 2.45516 9.31614C3.20703 8.54254 4.12597 7.93183 5.212 7.48395C6.31893 7.03608 7.57204 6.81217 8.97137 6.81217C10.3707 6.81217 11.6133 7.03608 12.6994 7.48395C13.7854 7.93183 14.7044 8.54254 15.4562 9.31614C16.2081 10.0693 16.772 10.9447 17.1479 11.9422C17.5448 12.9398 17.7432 13.9882 17.7432 15.0874C17.7432 15.3725 17.7327 15.6575 17.7118 15.9425C17.6909 16.2071 17.6596 16.4412 17.6179 16.6448H5.46265C5.54617 17.7237 5.943 18.5482 6.6531 19.1182C7.38409 19.6679 8.20907 19.9427 9.12801 19.9427C9.85897 19.9427 10.5587 19.7696 11.227 19.4236C11.9162 19.0775 12.3756 18.6093 12.6054 18.0189L16.866 19.1793C16.2185 20.4415 15.216 21.4695 13.8585 22.2635C12.501 23.0574 10.8719 23.4543 8.97137 23.4543ZM12.4488 13.6217C12.3443 12.6039 11.9684 11.7997 11.321 11.2094C10.6735 10.619 9.86942 10.3238 8.90871 10.3238C7.92711 10.3238 7.11259 10.6292 6.46515 11.2399C5.83858 11.8302 5.4731 12.6242 5.36867 13.6217H12.4488ZM35.8667 23.149H30.8544V14.1408C30.8544 13.0822 30.6455 12.3188 30.2278 11.8506C29.831 11.362 29.2984 11.1178 28.6301 11.1178C28.275 11.1178 27.92 11.189 27.5649 11.3315C27.2099 11.474 26.8653 11.6776 26.5311 11.9422C26.197 12.1865 25.8941 12.4817 25.6226 12.8278C25.372 13.1738 25.1736 13.5505 25.0274 13.9576V23.149H20.0149V7.11753H24.5261V9.80468C25.1318 8.84789 25.9881 8.11503 27.095 7.60611C28.2019 7.07682 29.4759 6.81217 30.917 6.81217C31.9822 6.81217 32.8385 7.00556 33.4859 7.39236C34.1334 7.75879 34.6346 8.24737 34.9896 8.85807C35.3447 9.44844 35.5744 10.0999 35.6787 10.8124C35.8043 11.5249 35.8667 12.217 35.8667 12.8889V23.149ZM49.6956 22.294C49.0063 22.579 48.2127 22.8436 47.3147 23.0879C46.4374 23.3322 45.5499 23.4543 44.6519 23.4543C44.0253 23.4543 43.4299 23.3729 42.8661 23.2101C42.3233 23.0676 41.8429 22.8335 41.4249 22.5077C41.0073 22.1617 40.6731 21.7138 40.4227 21.1641C40.1927 20.6145 40.0781 19.9529 40.0781 19.1793V10.8124H37.9791V7.11753H40.0781V2.018H45.0906V7.11753H48.4424V10.8124H45.0906V17.4998C45.0906 18.0291 45.2263 18.4159 45.4977 18.6602C45.7691 18.8841 46.1138 18.9961 46.5314 18.9961C46.9073 18.9961 47.2937 18.935 47.6906 18.8129C48.0876 18.6907 48.4319 18.5584 48.7243 18.4159L49.6956 22.294ZM59.1144 23.4543C57.736 23.4543 56.4933 23.2406 55.3863 22.8131C54.3003 22.3652 53.3708 21.7647 52.5979 21.0115C51.8461 20.2582 51.2718 19.393 50.8752 18.4159C50.4783 17.4184 50.2798 16.3801 50.2798 15.3012C50.2798 14.1408 50.4783 13.0517 50.8752 12.0339C51.2718 10.9956 51.8461 10.0897 52.5979 9.31614C53.3501 8.54254 54.2688 7.93183 55.3551 7.48395C56.4617 7.03608 57.7149 6.81217 59.1144 6.81217C60.5135 6.81217 61.7562 7.03608 62.8425 7.48395C63.9284 7.93183 64.8471 8.54254 65.5993 9.31614C66.3511 10.0693 66.9149 10.9447 67.2908 11.9422C67.6877 12.9398 67.8862 13.9882 67.8862 15.0874C67.8862 15.3725 67.8757 15.6575 67.8546 15.9425C67.834 16.2071 67.8024 16.4412 67.7607 16.6448H55.6054C55.6893 17.7237 56.0858 18.5482 56.7959 19.1182C57.527 19.6679 58.3521 19.9427 59.2708 19.9427C60.0019 19.9427 60.7014 19.7696 61.3697 19.4236C62.0591 19.0775 62.5185 18.6093 62.7485 18.0189L67.0089 19.1793C66.3616 20.4415 65.3591 21.4695 64.0014 22.2635C62.644 23.0574 61.0149 23.4543 59.1144 23.4543ZM62.5918 13.6217C62.4873 12.6039 62.1114 11.7997 61.4637 11.2094C60.8164 10.619 60.0124 10.3238 59.0516 10.3238C58.0702 10.3238 57.2556 10.6292 56.6079 11.2399C55.9813 11.8302 55.616 12.6242 55.5115 13.6217H62.5918ZM80.59 11.301C79.3785 11.3213 78.2821 11.5147 77.3006 11.8811C76.3191 12.2476 75.6091 12.7972 75.1704 13.5301V23.149H70.1579V7.11753H74.763V10.3543C75.3268 9.27539 76.0474 8.43057 76.9247 7.81986C77.8227 7.20912 78.773 6.89359 79.7755 6.87322C80.0051 6.87322 80.1724 6.87322 80.2769 6.87322C80.381 6.87322 80.4855 6.8834 80.59 6.90377V11.301ZM82.6386 0.857599H87.6511V17.4387C87.6511 18.6602 88.1837 19.2709 89.2486 19.2709C89.4994 19.2709 89.7708 19.2404 90.0632 19.1793C90.3767 19.0979 90.6586 18.9859 90.9093 18.8434L91.5671 22.5077C90.9405 22.7928 90.2199 23.0167 89.4054 23.1795C88.5908 23.3424 87.8285 23.4238 87.1185 23.4238C85.6773 23.4238 84.5707 23.0574 83.7978 22.3245C83.025 21.5916 82.6386 20.5331 82.6386 19.1488V0.857599ZM101.058 23.4543C99.6797 23.4543 98.437 23.2406 97.33 22.8131C96.244 22.3652 95.3148 21.7647 94.542 21.0115C93.7902 20.2582 93.2159 19.393 92.8189 18.4159C92.422 17.4184 92.2239 16.3801 92.2239 15.3012C92.2239 14.1408 92.422 13.0517 92.8189 12.0339C93.2159 10.9956 93.7902 10.0897 94.542 9.31614C95.2938 8.54254 96.2128 7.93183 97.2988 7.48395C98.4058 7.03608 99.659 6.81217 101.058 6.81217C102.458 6.81217 103.7 7.03608 104.786 7.48395C105.872 7.93183 106.791 8.54254 107.543 9.31614C108.295 10.0693 108.859 10.9447 109.235 11.9422C109.631 12.9398 109.83 13.9882 109.83 15.0874C109.83 15.3725 109.819 15.6575 109.799 15.9425C109.778 16.2071 109.746 16.4412 109.705 16.6448H97.5495C97.6329 17.7237 98.0299 18.5482 98.74 19.1182C99.4707 19.6679 100.296 19.9427 101.215 19.9427C101.946 19.9427 102.645 19.7696 103.314 19.4236C104.003 19.0775 104.463 18.6093 104.692 18.0189L108.953 19.1793C108.305 20.4415 107.303 21.4695 105.945 22.2635C104.588 23.0574 102.959 23.4543 101.058 23.4543ZM104.535 13.6217C104.431 12.6039 104.055 11.7997 103.408 11.2094C102.76 10.619 101.956 10.3238 100.995 10.3238C100.014 10.3238 99.1993 10.6292 98.552 11.2399C97.9254 11.8302 97.56 12.6242 97.4555 13.6217H104.535ZM116.769 23.4543C115.955 23.4543 115.193 23.3322 114.482 23.0879C113.793 22.8233 113.198 22.467 112.697 22.0191C112.196 21.5509 111.799 21.0115 111.507 20.4008C111.214 19.7696 111.068 19.0877 111.068 18.3548C111.068 17.5609 111.235 16.8382 111.569 16.1868C111.924 15.5353 112.415 14.9755 113.042 14.5073C113.668 14.039 114.41 13.6726 115.266 13.408C116.122 13.1433 117.072 13.011 118.117 13.011C118.806 13.011 119.474 13.0721 120.122 13.1942C120.769 13.296 121.333 13.4589 121.814 13.6828V12.9499C121.814 11.0974 120.717 10.1712 118.524 10.1712C117.626 10.1712 116.769 10.3238 115.955 10.6292C115.141 10.9142 114.284 11.3519 113.386 11.9422L111.914 8.88863C113 8.19648 114.128 7.67734 115.297 7.33128C116.467 6.98518 117.71 6.81217 119.025 6.81217C121.511 6.81217 123.432 7.38217 124.789 8.52216C126.147 9.66219 126.826 11.3315 126.826 13.5301V17.6525C126.826 18.1411 126.899 18.4871 127.045 18.6907C127.212 18.8739 127.494 18.9859 127.891 19.0266V23.149C127.452 23.2508 127.056 23.3119 126.7 23.3322C126.345 23.3729 126.022 23.3933 125.729 23.3933C124.789 23.3933 124.079 23.2203 123.599 22.8742C123.119 22.5077 122.816 21.9988 122.69 21.3474L122.597 20.6145C121.865 21.5306 120.988 22.2329 119.965 22.7215C118.962 23.2101 117.897 23.4543 116.769 23.4543ZM118.242 19.9427C118.785 19.9427 119.307 19.8511 119.808 19.6679C120.331 19.4847 120.759 19.2404 121.093 18.935C121.573 18.5686 121.814 18.1818 121.814 17.7746V16.2478C121.375 16.085 120.894 15.9628 120.372 15.8814C119.871 15.7796 119.401 15.7287 118.962 15.7287C118.044 15.7287 117.281 15.9323 116.675 16.3394C116.091 16.7466 115.798 17.2759 115.798 17.9273C115.798 18.5177 116.028 19.0063 116.488 19.393C116.947 19.7595 117.532 19.9427 118.242 19.9427ZM131.401 23.149V12.1255H129.302V8.43057H131.401V7.11753C131.401 6.12002 131.536 5.21411 131.808 4.39981C132.079 3.5855 132.466 2.89335 132.967 2.32335C133.468 1.75332 134.074 1.31566 134.784 1.01027C135.494 0.704922 136.277 0.552246 137.134 0.552246C138.47 0.552246 139.901 0.867784 141.426 1.49886L140.517 5.16319C140.183 5.0207 139.807 4.90873 139.389 4.82731C138.992 4.72553 138.617 4.67464 138.261 4.67464C137.029 4.67464 136.413 5.42787 136.413 6.93429V8.43057H140.235V12.1255H136.413V23.149H131.401Z" fill="#FFFFFF"/>
</svg>
